<svg id="fcdf2394-de01-4a7b-95da-056f2c95cca9" data-name="Camada 1" xmlns="http://www.w3.org/2000/svg" viewBox="0 0 13.74 60.84"><defs><style>.a9be594e-a286-48c9-955a-fec7e5f30161{fill-rule:evenodd;}</style></defs><title>souldance</title><path class="a9be594e-a286-48c9-955a-fec7e5f30161" d="M28.35,62.42a1.66,1.66,0,0,1-.13-.14,15.38,15.38,0,0,1-1.3-3.11,20.06,20.06,0,0,1-.5-2.17,11.27,11.27,0,0,1-.17-1.74c0-.85,0-1.71,0-2.57,0-.3,0-.6,0-.9s0-.31,0-.46l0-.54c0-.3.06-.6.11-.9.09-.6.19-1.2.29-1.8a18.81,18.81,0,0,1,.69-2.68,24.78,24.78,0,0,1,2.28-4.83c.94-1.57,1.9-3.14,2.81-4.73a17.36,17.36,0,0,0,1.72-4A16.17,16.17,0,0,0,34.56,30a12.15,12.15,0,0,0,.12-1.59,7.85,7.85,0,0,0-1-3.91,7.3,7.3,0,0,0-2.17-2.29,18.08,18.08,0,0,1-3-2.56,11.23,11.23,0,0,1-2.28-3.56c-.23-.6-.5-1.2-.67-1.82s-.26-1.3-.37-2c-.05-.28-.07-.57-.11-.86a4.32,4.32,0,0,1,.3-2A9.08,9.08,0,0,1,27,6.77a19.7,19.7,0,0,1,1.5-1.66,18.16,18.16,0,0,1,4.37-3.27c.2-.1.41-.17.62-.26l0,0-.08.07A28.14,28.14,0,0,0,30,4.32a20,20,0,0,0-2.82,3,8,8,0,0,0-1.34,2.55,4.32,4.32,0,0,0-.12,1.6,10.25,10.25,0,0,0,.64,2.94,7.08,7.08,0,0,0,4.35,4.27c1,.35,2,.65,2.93,1a10,10,0,0,1,2.54,1.25,6,6,0,0,1,2.15,2.82,8.91,8.91,0,0,1,.58,2.8,10.45,10.45,0,0,1-.61,3.8,16.29,16.29,0,0,1-2.38,4.42c-1,1.39-2.08,2.75-3.11,4.13a37.52,37.52,0,0,0-3.61,5.78,24.36,24.36,0,0,0-1.91,5.11c-.19.83-.36,1.67-.49,2.51a16.81,16.81,0,0,0-.14,1.87,19,19,0,0,0,0,2,16,16,0,0,0,1.44,5.51c.1.19.19.39.28.59a.65.65,0,0,1,0,.16Z" transform="translate(-25.13 -1.58)"/><path class="a9be594e-a286-48c9-955a-fec7e5f30161" d="M35.11,15.08a1.45,1.45,0,1,1-1.44,1.45A1.44,1.44,0,0,1,35.11,15.08Z" transform="translate(-25.13 -1.58)"/></svg>